<?xml version="1.0" encoding="utf-8"?>
<!-- Generator: Adobe Illustrator 15.0.2, SVG Export Plug-In . SVG Version: 6.00 Build 0)  -->
<!DOCTYPE svg PUBLIC "-//W3C//DTD SVG 1.1//EN" "http://www.w3.org/Graphics/SVG/1.1/DTD/svg11.dtd">
<svg version="1.1" id="Calque_1" xmlns="http://www.w3.org/2000/svg" xmlns:xlink="http://www.w3.org/1999/xlink" x="0px" y="0px"
	 width="100px" height="100px" viewBox="0 0 100 100" enable-background="new 0 0 100 100" xml:space="preserve">
<g id="Captions">
</g>
<g id="Your_Icon">
	<path d="M1.831,54.672c0,0,42.887,43.142,43.247,43.496c2.441,2.44,7.154,2.44,9.595,0l43.496-43.496
		c2.44-2.441,2.44-6.406,0-8.838c-2.438-2.44-6.396-2.44-8.838,0L56.25,78.915V6.249c0-3.455-2.797-6.25-6.25-6.25
		c-3.451,0-6.25,2.795-6.25,6.25v72.667L10.669,45.833c-2.44-2.44-6.396-2.44-8.838,0C-0.609,48.268-0.609,52.23,1.831,54.672z"/>
</g>
</svg>
