<?xml version="1.0" encoding="utf-8"?>
<!-- Generator: Adobe Illustrator 15.0.2, SVG Export Plug-In . SVG Version: 6.00 Build 0)  -->
<!DOCTYPE svg PUBLIC "-//W3C//DTD SVG 1.1//EN" "http://www.w3.org/Graphics/SVG/1.1/DTD/svg11.dtd">
<svg version="1.1" id="Calque_1" xmlns="http://www.w3.org/2000/svg" xmlns:xlink="http://www.w3.org/1999/xlink" x="0px" y="0px"
	 width="100px" height="100px" viewBox="0 0 100 100" enable-background="new 0 0 100 100" xml:space="preserve">
<g id="Captions">
</g>
<g id="Your_Icon">
	<path d="M54.673,98.169c0,0,43.142-42.887,43.496-43.247c2.44-2.441,2.44-7.154,0-9.594L54.673,1.832
		c-2.441-2.441-6.405-2.441-8.838,0c-2.44,2.437-2.44,6.396,0,8.838L78.916,43.75H6.25C2.795,43.75,0,46.547,0,50
		c0,3.451,2.795,6.25,6.25,6.25h72.666L45.835,89.331c-2.44,2.44-2.44,6.396,0,8.838C48.27,100.609,52.231,100.609,54.673,98.169z"
		/>
</g>
</svg>
