<?xml version="1.0" encoding="utf-8"?>
<!-- Generator: Adobe Illustrator 15.0.2, SVG Export Plug-In . SVG Version: 6.00 Build 0)  -->
<!DOCTYPE svg PUBLIC "-//W3C//DTD SVG 1.1//EN" "http://www.w3.org/Graphics/SVG/1.1/DTD/svg11.dtd">
<svg version="1.1" id="Calque_1" xmlns="http://www.w3.org/2000/svg" xmlns:xlink="http://www.w3.org/1999/xlink" x="0px" y="0px"
	 width="100px" height="100px" viewBox="0 0 100 100" enable-background="new 0 0 100 100" xml:space="preserve">
<g id="Captions">
</g>
<g id="Your_Icon">
	<path d="M45.327,1.831c0,0-43.142,42.887-43.496,43.247c-2.44,2.441-2.44,7.154,0,9.595l43.496,43.496
		c2.441,2.44,6.406,2.44,8.839,0c2.44-2.438,2.44-6.396,0-8.838L21.084,56.25h72.667c3.455,0,6.25-2.797,6.25-6.25
		c0-3.451-2.795-6.25-6.25-6.25H21.084l33.082-33.081c2.44-2.44,2.44-6.396,0-8.838C51.731-0.609,47.769-0.609,45.327,1.831z"/>
</g>
</svg>
