<?xml version="1.0" encoding="utf-8"?>
<!-- Generator: Adobe Illustrator 15.0.0, SVG Export Plug-In . SVG Version: 6.00 Build 0)  -->
<!DOCTYPE svg PUBLIC "-//W3C//DTD SVG 1.1//EN" "http://www.w3.org/Graphics/SVG/1.1/DTD/svg11.dtd">
<svg version="1.1" id="Layer_1" xmlns="http://www.w3.org/2000/svg" xmlns:xlink="http://www.w3.org/1999/xlink" x="0px" y="0px"
	 width="512px" height="512px" viewBox="0 0 512 512" enable-background="new 0 0 512 512" xml:space="preserve">
<g>
	<path fill="none" d="M145.819,309.587c-51.42-0.556-97.483,31.344-97.483,69.666c0,39.101,37.137,71.65,88.558,71.65
		c72.291,0,97.487-30.557,97.487-69.655c0-4.714-0.577-9.328-1.642-13.815c-5.647-22.12-25.672-33.089-53.585-52.501
		C169.002,311.645,157.819,309.714,145.819,309.587z"/>
	<path fill="none" d="M128.827,58.667c-34.51-1.026-57.652,33.661-51.694,78.995c5.958,45.316,38.759,82.898,73.276,83.93
		c34.502,1.033,57.651-34.866,51.698-80.193C196.147,96.074,163.332,59.704,128.827,58.667z"/>
	<polygon points="425.313,126.393 425.313,39.704 403.641,39.704 403.641,126.393 316.953,126.393 316.953,148.064 403.641,148.064 
		403.641,234.751 425.313,234.751 425.313,148.064 512,148.064 512,126.393 	"/>
	<path d="M279.533,39.704c0,0-100.477,0-133.969,0c-60.061,0-116.586,45.503-116.586,98.211c0,53.863,40.941,97.333,102.044,97.333
		c4.249,0,8.378-0.085,12.421-0.376c-3.965,7.593-6.801,16.144-6.801,25.021c0,14.969,8.052,27.105,18.234,37.011
		c-7.693,0-15.121,0.224-23.225,0.224C57.259,297.128,0,344.508,0,393.639c0,48.388,62.771,78.657,137.167,78.657
		c84.812,0,131.654-48.122,131.654-96.514c0-38.799-11.449-62.036-46.843-87.067c-12.109-8.572-35.265-29.418-35.265-41.672
		c0-14.36,4.098-21.434,25.714-38.323c22.156-17.312,37.836-41.651,37.836-69.958c0-33.703-15.01-66.549-43.186-77.386h42.477
		L279.533,39.704z M232.74,367.433c1.063,4.487,1.642,9.103,1.642,13.815c0,39.1-25.196,69.655-97.487,69.655
		c-51.421,0-88.558-32.551-88.558-71.65c0-38.322,46.063-70.222,97.483-69.666c12,0.127,23.183,2.058,33.335,5.345
		C207.067,334.344,227.092,345.313,232.74,367.433z M150.409,221.592c-34.518-1.032-67.318-38.613-73.276-83.93
		c-5.958-45.333,17.185-80.021,51.694-78.995c34.505,1.037,67.32,37.407,73.28,82.729
		C208.059,186.726,184.911,222.625,150.409,221.592z"/>
</g>
</svg>
