<svg xmlns="http://www.w3.org/2000/svg" xmlns:xlink="http://www.w3.org/1999/xlink" version="1.1" x="0px" y="0px" width="100px" height="100px" viewBox="5.0 -10.0 100.0 135.0" enable-background="new 0 0 100 100" xml:space="preserve">
<g id="Captions">
</g>
<g id="Your_Icon">
	<path d="M90.927,9.073c-9.353-9.354-24.578-9.354-33.932,0L40.364,25.702c6.215-1.195,12.741-0.329,18.505,2.559l8.655-8.658   c3.552-3.548,9.322-3.548,12.873,0c3.546,3.549,3.546,9.323-0.003,12.871l-8.655,8.656l-3.735,3.735l-7.447,7.45   c-1.577,1.574-3.593,2.409-5.655,2.586c-1.681,0.143-3.37-0.177-4.905-0.958c-0.829-0.422-1.619-0.937-2.31-1.628   c-0.69-0.692-1.207-1.486-1.626-2.312c-1.123-0.049-2.254,0.339-3.107,1.191l-8.45,8.454c0.785,1.118,1.656,2.195,2.654,3.194   c0.999,1.001,2.077,1.868,3.195,2.653c1.43,1.008,2.94,1.854,4.513,2.507c6.959,2.899,15.004,2.369,21.572-1.565   c1.654-0.992,3.225-2.17,4.65-3.595l3.209-3.208l16.627-16.63C100.281,33.649,100.283,18.428,90.927,9.073z"/>
	<path d="M41.13,71.736l-8.656,8.66c-3.548,3.547-9.319,3.547-12.868,0c-3.549-3.55-3.549-9.324-0.002-12.872l8.661-8.659   l3.733-3.731l7.446-7.448c1.575-1.575,3.594-2.411,5.657-2.588c1.677-0.143,3.369,0.177,4.901,0.958   c0.829,0.425,1.622,0.938,2.313,1.631c0.69,0.691,1.207,1.483,1.629,2.311c1.117,0.049,2.251-0.342,3.104-1.192l8.453-8.455   c-0.785-1.117-1.654-2.196-2.653-3.195s-2.077-1.869-3.198-2.653c-1.43-1.006-2.939-1.848-4.515-2.504   c-6.96-2.902-15.002-2.368-21.571,1.563c-1.656,0.992-3.227,2.172-4.649,3.595l-3.209,3.209L9.074,56.995   C-0.283,66.35-0.28,81.571,9.076,90.928c9.354,9.353,24.573,9.353,33.928,0l16.63-16.631C53.42,75.492,46.894,74.627,41.13,71.736z   "/>
</g>
<text x="0.0" y="117.5" font-size="5.0" font-weight="bold" font-family="Helvetica Neue, Helvetica, Arial-Unicode, Arial, Sans-serif" fill="#000000">Created by Diego Naive</text><text x="0.0" y="122.5" font-size="5.0" font-weight="bold" font-family="Helvetica Neue, Helvetica, Arial-Unicode, Arial, Sans-serif" fill="#000000">from the Noun Project</text></svg>