<?xml version="1.0" encoding="utf-8"?>
<!-- Generated by IcoMoon.io -->
<!DOCTYPE svg PUBLIC "-//W3C//DTD SVG 1.1//EN" "http://www.w3.org/Graphics/SVG/1.1/DTD/svg11.dtd">
<svg version="1.1" xmlns="http://www.w3.org/2000/svg" xmlns:xlink="http://www.w3.org/1999/xlink" width="32" height="32" viewBox="0 0 32 32">
<g>
</g>
	<path d="M14.912 0c0.725-0 1.451 0 2.176 0 4.41 0.429 7.789 2.221 10.24 4.672 2.451 2.451 4.243 5.829 4.672 10.24-0 0.725 0 1.451-0 2.176-0.429 4.411-2.221 7.789-4.672 10.24-2.451 2.451-5.83 4.243-10.24 4.672-0.725 0-1.451 0-2.176 0-4.41-0.429-7.789-2.221-10.24-4.672-2.451-2.451-4.243-5.829-4.672-10.24-0-0.725 0-1.451 0-2.176 0.309-4.179 2.315-7.883 4.672-10.24 2.539-2.539 5.954-4.252 10.24-4.672zM16.384 4.736c-0.004-0.039-0.010-0.076-0.064-0.064-3.867 3.962-7.845 7.814-11.712 11.776 3.197 3.337 6.626 6.754 9.92 10.048 0.316 0.316 1.288 1.416 1.472 1.408-0.031 0.001 0.451-0.451 0.64-0.64 3.289-3.289 6.559-6.6 9.728-9.792 0.399-0.475 0.884-0.866 1.28-1.344 0.098-0.001 0.21-0.175-0-0.128-3.259-0.496-6.637-0.872-9.856-1.408-0.501-3.253-0.875-6.634-1.408-9.856z" fill="#000000" />
</svg>
