<svg xmlns="http://www.w3.org/2000/svg" xmlns:xlink="http://www.w3.org/1999/xlink" version="1.0" x="0px" y="0px" width="100px" height="100px" viewBox="0 0 100 100" enable-background="new 0 0 100 100" xml:space="preserve">
<g id="Captions">
</g>
<g id="Your_Icon">
	<path fill="#000000" d="M98.169,45.327c0,0-42.887-43.142-43.247-43.496c-2.441-2.441-7.155-2.441-9.595,0L1.831,45.327   c-2.441,2.441-2.441,6.405,0,8.838c2.437,2.441,6.396,2.441,8.838,0L43.75,21.084V93.75c0,3.455,2.797,6.25,6.25,6.25   c3.451,0,6.25-2.795,6.25-6.25V21.084l33.081,33.081c2.441,2.441,6.396,2.441,8.838,0C100.61,51.731,100.61,47.768,98.169,45.327z"/>
</g>
</svg>