<?xml version="1.0" encoding="utf-8"?>
<!-- Generator: Adobe Illustrator 15.0.2, SVG Export Plug-In . SVG Version: 6.00 Build 0)  -->
<!DOCTYPE svg PUBLIC "-//W3C//DTD SVG 1.1//EN" "http://www.w3.org/Graphics/SVG/1.1/DTD/svg11.dtd">
<svg version="1.1" id="Calque_1" xmlns="http://www.w3.org/2000/svg" xmlns:xlink="http://www.w3.org/1999/xlink" x="0px" y="0px"
	 width="512px" height="512px" viewBox="0 0 512 512" enable-background="new 0 0 512 512" xml:space="preserve">
<g id="_x35_151e0c8492e5103c096af88a5006e1e">
	<path d="M450.868,250.959c1.585-3.822,3.039-7.831,4.342-12.051c0.668-2.268,0.668-2.268,1.276-4.283
		c4.597-16.631,7.074-36.288,7.585-59.567c-0.126-63.126-31.104-85.459-37.077-95.942c8.784-47.804-1.457-69.552-6.206-77.021
		c-17.568-6.086-61.083,15.674-84.882,31.011c-38.764-11.055-120.702-9.985-151.435,2.85C127.77-3.631,97.777,2.432,97.777,2.432
		s-19.395,33.885-5.12,83.456c-18.666,23.18-32.558,39.587-32.558,83.084c0,24.487,2.949,46.422,9.627,65.568
		c0.782,2.075,0.782,2.075,1.583,4.293c1.583,4.121,3.37,8.116,5.35,11.976c0.975,1.812,0.975,1.812,2.289,4.232
		c21.297,37.721,62.386,61.187,131.69,67.673c-9.895,7.319-21.77,21.21-23.417,37.283c-12.437,7.843-37.436,10.433-56.881,4.443
		c-27.247-8.377-37.679-60.985-78.485-53.491c-8.835,1.618-7.073,7.309,0.562,12.124c12.436,7.846,24.144,17.666,33.171,38.566
		c6.933,16.047,21.515,44.729,67.607,44.729c18.283,0,31.103-2.138,31.103-2.138s0.358,40.954,0.358,56.876
		c0,18.361-25.421,23.541-25.421,32.368c0,3.496,8.414,3.818,15.181,3.818c13.356,0,41.152-10.866,41.152-29.95
		c0-15.176,0.255-66.154,0.255-75.079c0-19.494,10.725-25.682,10.725-25.682s1.327,104.109-2.566,118.065
		c-4.559,16.407-12.806,14.078-12.806,21.398c0,10.881,33.465,2.664,44.56-21.225c8.58-18.609,4.826-120.727,4.826-120.727
		l9.154-0.189c0,0,0.51,46.746,0.202,68.121c-0.33,22.133-1.863,50.116,11.625,63.312c8.838,8.679,37.539,23.902,37.539,9.997
		c0-8.092-15.705-14.741-15.705-36.624V368.015c12.538,0,10.648,33.113,10.648,33.113l0.918,61.521c0,0-2.756,22.409,24.874,31.796
		c9.754,3.321,30.617,4.22,31.587-1.36c0.97-5.589-25.128-13.902-25.358-31.271c-0.153-10.579,0.485-16.754,0.485-62.764
		c0-46.013-6.333-63.018-28.422-76.574c68.154-6.834,110.314-23.265,130.872-67.297
		C450.103,252.816,450.103,252.816,450.868,250.959z"/>
</g>
</svg>
