<?xml version="1.0" encoding="utf-8"?>
<!-- Generator: Adobe Illustrator 15.0.0, SVG Export Plug-In . SVG Version: 6.00 Build 0)  -->
<!DOCTYPE svg PUBLIC "-//W3C//DTD SVG 1.1//EN" "http://www.w3.org/Graphics/SVG/1.1/DTD/svg11.dtd">
<svg version="1.1" id="Layer_1" xmlns="http://www.w3.org/2000/svg" xmlns:xlink="http://www.w3.org/1999/xlink" x="0px" y="0px"
	 width="512px" height="512px" viewBox="0 0 512 512" enable-background="new 0 0 512 512" xml:space="preserve">
<path d="M426.656,0H85.344C38.406,0,0,38.406,0,85.343v341.313C0,473.624,38.407,512,85.344,512h341.312
	C473.593,512,512,473.624,512,426.656V85.344C511.998,38.406,473.593,0,426.656,0z M157.395,428.635H79.969V195.671h77.426V428.635z
	 M118.684,163.879h-0.508c-25.983,0-42.788-17.898-42.788-40.266c0-22.846,17.313-40.248,43.803-40.248
	c26.486,0,42.791,17.396,43.296,40.248C162.487,145.973,145.678,163.879,118.684,163.879z M436.611,428.635h-77.426V303.997
	c0-31.308-11.205-52.669-39.219-52.669c-21.395,0-34.143,14.406-39.73,28.318c-2.041,4.98-2.548,11.925-2.548,18.883v130.104
	h-77.444c0,0,1.018-211.103,0-232.963h77.436v33c10.283-15.864,28.672-38.479,69.785-38.479c50.952,0,89.146,33.309,89.146,104.856
	V428.635L436.611,428.635z"/>
</svg>
