<?xml version="1.0" encoding="utf-8"?>
<!-- Generator: Adobe Illustrator 15.0.2, SVG Export Plug-In . SVG Version: 6.00 Build 0)  -->
<!DOCTYPE svg PUBLIC "-//W3C//DTD SVG 1.1//EN" "http://www.w3.org/Graphics/SVG/1.1/DTD/svg11.dtd">
<svg version="1.1" id="Calque_1" xmlns="http://www.w3.org/2000/svg" xmlns:xlink="http://www.w3.org/1999/xlink" x="0px" y="0px"
	 width="32px" height="32px" viewBox="0 0 32 32" enable-background="new 0 0 32 32" xml:space="preserve">
<path d="M31.951,6.105c-1.177,0.522-2.436,0.872-3.761,1.031c1.353-0.809,2.391-2.092,2.878-3.62
	c-1.263,0.749-2.664,1.295-4.154,1.588c-1.193-1.272-2.895-2.066-4.778-2.066c-3.615,0-6.545,2.93-6.545,6.543
	c0,0.513,0.057,1.012,0.17,1.491C10.322,10.801,5.499,8.195,2.272,4.235c-0.565,0.966-0.89,2.091-0.89,3.291
	c0,2.271,1.157,4.273,2.914,5.447c-1.073-0.035-2.083-0.327-2.965-0.818c0,0.028,0,0.054,0,0.081c0,3.171,2.257,5.814,5.25,6.419
	c-0.549,0.148-1.127,0.229-1.726,0.229c-0.421,0-0.83-0.04-1.23-0.115c0.832,2.6,3.25,4.491,6.114,4.544
	c-2.24,1.756-5.061,2.802-8.128,2.802c-0.529,0-1.049-0.032-1.561-0.092c2.896,1.856,6.335,2.94,10.033,2.94
	c12.039,0,18.621-9.973,18.621-18.623c0-0.283-0.006-0.566-0.02-0.846c1.28-0.922,2.388-2.075,3.266-3.387L31.951,6.105z"/>
</svg>
